<?xml version="1.0" standalone="no"?>
<!DOCTYPE svg PUBLIC "-//W3C//DTD SVG 1.1//EN" "http://www.w3.org/Graphics/SVG/1.1/DTD/svg11.dtd">
<svg xmlns="http://www.w3.org/2000/svg" width="202" height="89" viewBox="0 0 202 89" fill="none">
<path d="M82.5855 57.3895L43.3691 63.8478L51.8986 79.8036L80.1692 65.7948L82.5855 57.3895Z" fill="#E5E3DD"/>
<path d="M85.0015 48.9604L24.9326 43.2619L33.6071 59.4077L83.1893 55.1576L85.0015 48.9604Z" fill="#E5E3DD"/>
<path d="M87.9498 39.9615L0.552734 0.61792L13.3349 36.756L85.9927 46.5622L87.9498 39.9615Z" fill="#E5E3DD"/>
<path d="M118.951 57.2232L158.941 63.8477L150.411 79.8036L121.754 65.1774L118.951 57.2232Z" fill="#E5E3DD"/>
<path d="M116.147 49.2454L177.376 43.2619L168.702 59.4077L118.225 55.1101L116.147 49.2454Z" fill="#E5E3DD"/>
<path d="M113.176 40.745L201.757 0.61792L188.975 36.756L115.35 46.9896L113.176 40.745Z" fill="#E5E3DD"/>
<path d="M106.241 29.4667H111.605L108.319 24.9791H107.111L105.323 21.6075H90.7044L95.3436 24.4093L82.3682 67.6943L90.8735 87.1167L97.4216 65.6523H104.574L111.122 87.1167L119.821 67.6943L106.241 29.4667ZM106.869 61.6159L101.143 57.5319L95.4161 61.6159L97.5908 55.0151L91.8642 50.9311H98.9197L101.094 44.3303L103.269 50.9311H110.325L104.598 55.0151L106.773 61.6159H106.869Z" fill="#E5E3DD"/>
</svg>